<?xml version="1.0" encoding="UTF-8"?>
<!DOCTYPE svg PUBLIC "-//W3C//DTD SVG 1.1//EN" "http://www.w3.org/Graphics/SVG/1.1/DTD/svg11.dtd">
<!-- Creator: CorelDRAW Home & Student 2018 -->
<svg xmlns="http://www.w3.org/2000/svg" xml:space="preserve" width="100mm" height="23.384mm" version="1.1" style="shape-rendering:geometricPrecision; text-rendering:geometricPrecision; image-rendering:optimizeQuality; fill-rule:evenodd; clip-rule:evenodd"
viewBox="0 0 10000 2338.4"
 xmlns:xlink="http://www.w3.org/1999/xlink">
 <defs>
  <style type="text/css">
   <![CDATA[
    .fil0 {fill:white;fill-rule:nonzero}
   ]]>
  </style>
 </defs>
 <g id="_23Layer_x0020_1">
  <metadata id="CorelCorpID_0Corel-Layer"/>
  <g id="_631273832">
   <g>
    <path class="fil0" d="M430.89 985.56l302.07 0.17 0 -355.29c0,-37.68 30.71,-68.26 68.31,-68.26l572.23 0c156.81,0 284.22,127.81 284.22,284.88 0,154.34 -124.78,275.19 -284.22,275.19l-503.92 -0.14 0 85.62 503.92 0c156.81,0 284.22,127.39 284.22,284.19 0,154.76 -124.78,275.88 -284.22,275.88l-572.23 0.05c-18.1,0 -35.37,-7.1 -48.21,-19.93 -12.79,-12.83 -20.1,-30.18 -20.1,-48.33l0 -355.49 -302.07 0 0 563.33 1476.46 0 0 -1476.46 -1476.46 0 0 554.59z"/>
    <path class="fil0" d="M1521.31 847.06c0,-81.84 -66.36,-148.51 -147.81,-148.51l-503.92 0.09 0 287.09 503.92 0.05c84.22,0 147.81,-59.64 147.81,-138.72z"/>
    <path class="fil0" d="M1521.31 1491.92c0,-81.49 -66.36,-147.82 -147.81,-147.82l-503.92 0 0 287.3 503.92 -0.07c84.22,0 147.81,-59.89 147.81,-139.41z"/>
    <path class="fil0" d="M2171.82 0.02l-2005.34 0c-91.86,0 -166.49,74.67 -166.49,166.46l0 2005.44c0,91.78 74.63,166.46 166.49,166.46l2005.34 0c91.81,0 166.53,-74.68 166.53,-166.46l0 -2005.44c0,-91.79 -74.72,-166.46 -166.53,-166.46zm-127.91 1975.69l0 0c0,37.68 -30.6,68.21 -68.26,68.21l-1612.97 0c-37.65,0 -68.2,-30.53 -68.2,-68.21l0 -699.79c0,-37.71 30.55,-68.19 68.2,-68.19l370.28 0 0 -85.62 -370.28 0c-37.65,0 -68.2,-30.58 -68.2,-68.27l0 -691.13c0,-37.7 30.55,-68.13 68.2,-68.13l1612.97 0c37.66,0 68.26,30.43 68.26,68.13l0 1613z"/>
   </g>
   <g>
    <g>
     <path class="fil0" d="M2896.37 1557.8l0 -776.35 -30.89 0c-47.77,0 -81.73,-9.1 -102.16,-27.44 -20.34,-18.44 -30.36,-42.57 -30.36,-72.15 0,-29.63 10.02,-53.73 30.36,-72.17 20.43,-18.29 54.39,-27.51 102.16,-27.51l497.46 0c118.75,0 214.25,33.1 286.55,99.17 72.15,66.14 108.4,144.79 108.4,235.64 0,43.25 -8.37,83.95 -25.11,121.97 -16.83,38.14 -42.27,73.24 -76.53,105.55 62.57,37.41 109.62,81.08 140.85,131.19 31.28,49.94 46.94,106.57 46.94,169.91 0,50.18 -11.38,97.06 -33.75,140.26 -16.89,32.91 -37.62,59.01 -62.04,78.35 -33.08,27.2 -73.31,49.26 -121.04,66.34 -47.73,17.07 -107.37,25.66 -179.08,25.66l-582.65 0c-47.77,0 -81.73,-9.21 -102.16,-27.66 -20.34,-18.34 -30.36,-42.35 -30.36,-72.05 0,-29.05 10.16,-52.71 30.8,-71.1 20.72,-18.41 54.58,-27.61 101.72,-27.61l30.89 0zm198.45 -487.87l0 0 217.91 0c77.98,0 142.84,-19.68 194.5,-58.95 34.84,-26.53 52.16,-59.42 52.16,-98.78 0,-34.81 -16.35,-65.34 -49.33,-91.54 -32.89,-26.12 -85.14,-39.21 -156.8,-39.21l-258.44 0 0 288.48zm0 487.87l0 0 342.7 0c80.62,0 137.39,-11.95 170.28,-35.81 25.15,-18.07 37.75,-43.88 37.75,-77.45 0,-39.95 -24.86,-79.35 -74.49,-118.05 -49.71,-38.75 -121.13,-58.16 -214.01,-58.16l-262.23 0 0 289.47z"/>
     <path class="fil0" d="M5048.16 1169.64c0,176.12 -56.05,322.9 -167.9,440.02 -112.13,117.05 -241.69,175.63 -388.72,175.63 -132.33,0 -251.67,-48.75 -358.07,-146.17 -131.6,-120.65 -197.52,-277.19 -197.52,-469.48 0,-192.29 65.92,-349.05 197.52,-470.41 106.4,-97.38 225.74,-146.12 358.07,-146.12 147.03,0 276.59,58.57 388.72,175.7 111.85,117.1 167.9,264.08 167.9,440.83zm-198.45 0l0 0c0,-120.58 -36.44,-220.49 -109.42,-299.5 -72.97,-79.03 -155.83,-118.59 -248.75,-118.59 -92.29,0 -174.85,39.73 -247.73,119.06 -72.97,79.34 -109.51,179.05 -109.51,299.03 0,120.12 36.54,219.61 109.51,298.57 72.88,79.16 155.44,118.63 247.73,118.63 92.92,0 175.78,-39.33 248.75,-118.1 72.98,-78.71 109.42,-178.4 109.42,-299.1z"/>
     <path class="fil0" d="M6307.82 1573.29c-14.83,-10.28 -45.38,-15.49 -91.84,-15.49l-395 -974.7 -428.81 -0.92c-47.73,0 -81.64,9.22 -102.12,27.51 -20.29,18.44 -30.51,42.54 -30.51,72.17 0,29.58 10.22,53.71 30.51,72.15 20.48,18.34 54.39,27.44 102.12,27.44l129.75 0 -311.7 776.35c-49.05,-1.32 -84.22,7.44 -105.43,26.2 -21.36,18.68 -32.06,42.89 -32.06,72.51 0,29.7 10.16,53.71 30.6,72.05 20.38,18.45 54.39,27.66 102.02,27.66l267.14 0c47.87,0 81.83,-9.21 102.12,-27.66 20.28,-18.34 30.6,-42.05 30.6,-70.98 0,-29.7 -10.32,-53.78 -30.6,-72.17 -20.29,-18.41 -54.25,-27.61 -102.12,-27.61l-48.36 0 48.36 -121.02 79.35 -198.35 160.69 -392.98 159.68 392.98 82.32 198.35 47.52 121.02 -48.45 0c-47.77,0 -81.79,9.2 -102.12,27.61 -20.29,18.39 -30.5,42.05 -30.5,71.1 0,29.7 10.21,53.71 30.5,72.05 20.33,18.45 54.35,27.66 102.12,27.66l267.14 0c47.78,0 81.63,-9.21 101.59,-27.66 20.09,-18.34 30.16,-42.05 30.16,-70.98 0,-34.9 -15.04,-63.03 -44.67,-84.29z"/>
     <path class="fil0" d="M7189.24 1158.08l331.02 399.72c39.4,0.68 68.83,10.17 88.44,28.53 19.9,18.49 29.63,42.16 29.63,71.25 0,28.93 -10.12,52.64 -30.5,70.98 -20.29,18.45 -54.29,27.66 -102.17,27.66l-223.5 0c-47.1,0 -80.96,-9.21 -101.14,-27.66 -20.25,-18.34 -30.51,-42.35 -30.51,-72.05 0,-27.7 9.39,-50.76 28.12,-69.25 18.68,-18.37 46.65,-28.12 84.17,-29.46l-199.38 -245.86 -201.32 245.86c36.74,1.34 64.42,11.31 83.15,30.07 18.78,18.6 28.22,41.93 28.22,69.71 0,28.93 -10.12,52.64 -30.55,70.98 -20.44,18.45 -54.39,27.66 -102.08,27.66l-222.77 0c-47.72,0 -81.64,-9.21 -102.02,-27.66 -20.29,-18.34 -30.5,-42.35 -30.5,-72.05 0,-28.36 9.97,-51.91 30.06,-70.64 19.9,-18.68 49.24,-28.07 88.06,-28.07l329.08 -401.59 -313.7 -374.76c-38.63,-1.2 -67.43,-11.02 -86.46,-29.43 -19.12,-18.35 -28.7,-41.77 -28.7,-70.16 0,-29.63 10.17,-53.73 30.55,-72.17 20.29,-18.29 54.39,-27.51 102.07,-27.51l182.93 0.92c47.78,0 81.73,9.05 102.27,27.05 20.18,18.15 30.35,42.08 30.35,71.71 0,21.95 -6.52,41.94 -19.31,60.04 -8.42,10.97 -27.15,24.18 -56.14,39.55l184.92 221.72 180.98 -221.72c-29.05,-15.37 -47.82,-28.58 -56.1,-39.55 -12.94,-18.1 -19.41,-38.09 -19.41,-60.04 0,-29.04 10.12,-52.88 30.45,-71.71 20.25,-18.65 54.35,-27.97 102.13,-27.97l181.95 0.92c47.72,0 81.83,9.05 102.12,27.05 20.43,18.15 30.5,42.08 30.5,71.71 0,28.39 -9.92,51.93 -29.43,70.67 -19.7,18.68 -48.31,28.41 -85.77,28.92l-309.71 376.63z"/>
     <path class="fil0" d="M8805.62 1169.64c0,176.12 -55.91,322.9 -167.95,440.02 -111.94,117.05 -241.4,175.63 -388.57,175.63 -132.24,0 -251.67,-48.75 -358.17,-146.17 -131.51,-120.65 -197.43,-277.19 -197.43,-469.48 0,-192.29 65.92,-349.05 197.43,-470.41 106.5,-97.38 225.93,-146.12 358.17,-146.12 147.17,0 276.63,58.57 388.57,175.7 112.04,117.1 167.95,264.08 167.95,440.83zm-198.36 0l0 0c0,-120.58 -36.53,-220.49 -109.32,-299.5 -72.97,-79.03 -156.02,-118.59 -248.84,-118.59 -92.25,0 -174.96,39.73 -247.83,119.06 -72.84,79.34 -109.32,179.05 -109.32,299.03 0,120.12 36.48,219.61 109.32,298.57 72.87,79.16 155.58,118.63 247.83,118.63 92.82,0 175.87,-39.33 248.84,-118.1 72.79,-78.71 109.32,-178.4 109.32,-299.1z"/>
     <path class="fil0" d="M9655.4 1270.32l-423.9 0 0 287.48 30.99 0c47.78,0 81.79,9.2 102.17,27.61 20.29,18.39 30.31,42.47 30.31,72.17 0,28.93 -10.02,52.64 -30.31,70.98 -20.38,18.45 -54.39,27.66 -102.17,27.66l-242.96 0c-47.72,0 -81.78,-9.21 -102.02,-27.66 -20.38,-18.34 -30.55,-42.35 -30.55,-72.05 0,-36.15 15.91,-64.12 47.48,-84.28 15.42,-10.3 48.36,-15.08 98.66,-14.43l0 -776.35c-34.78,-3.14 -61.2,-13.77 -78.76,-31.89 -17.81,-17.95 -26.71,-40.63 -26.71,-67.7 0,-29.63 10.12,-53.73 30.36,-72.17 20.43,-18.29 54.44,-27.51 102.26,-27.51l202.24 0.92c47.78,0 81.79,9.05 102.17,27.05 20.29,18.15 30.31,42.08 30.31,71.71 0,29.58 -10.02,53.71 -30.31,72.15 -20.38,18.34 -54.39,27.44 -102.17,27.44l-30.99 0 0 290.4 423.9 0 0 -290.4 -30.85 0c-47.82,0 -81.88,-9.1 -102.11,-27.44 -20.39,-18.44 -30.51,-42.57 -30.51,-72.15 0,-29.63 10.12,-53.73 30.51,-72.17 20.23,-18.29 54.29,-27.51 102.11,-27.51l202.3 0.92c47.72,0 81.73,9.05 102.11,27.05 20.29,18.15 30.46,42.08 30.46,71.71 0,27.07 -8.95,49.75 -26.71,67.7 -17.71,18.12 -44.03,28.75 -78.72,31.89l0 776.35c50.85,0 83.78,4.87 98.67,14.43 31.57,20.16 47.33,48.52 47.33,85.35 0,28.93 -10.12,52.64 -30.31,70.98 -20.43,18.45 -54.39,27.66 -102.16,27.66l-242.97 0c-47.82,0 -81.88,-9.21 -102.11,-27.66 -20.39,-18.34 -30.51,-42.35 -30.51,-72.05 0,-29.05 10.26,-52.71 31.04,-71.1 20.58,-18.41 54.39,-27.61 101.58,-27.61l30.85 0 0 -287.48z"/>
    </g>
   </g>
  </g>
 </g>
</svg>
